<?xml version="1.0" encoding="UTF-8" standalone="no"?>
<svg width="376px" height="376px" viewBox="0 0 376 376" version="1.1" xmlns="http://www.w3.org/2000/svg" xmlns:xlink="http://www.w3.org/1999/xlink" xmlns:sketch="http://www.bohemiancoding.com/sketch/ns">
    <!-- Generator: Sketch 3.3.3 (12081) - http://www.bohemiancoding.com/sketch -->
    <title>soon_5x</title>
    <desc>Created with Sketch.</desc>
    <defs></defs>
    <g id="SVG-Line-Images" stroke="none" stroke-width="1" fill="none" fill-rule="evenodd" sketch:type="MSPage">
        <g id="soon_5x" sketch:type="MSArtboardGroup" transform="translate(-68.000000, -68.000000)" stroke="#A81306">
            <path d="M240,272 L207,272 L207,272 L207,305 L240,305 L240,272 Z M272,272 L303,272 L303,272 L303,305 L272,305 L272,272 Z M240,400 L207,400 L207,443.5 L175,443.5 L175,400 L143,400 L143,443.5 L111,443.5 L111,400 L68.5,400 L68.5,368 L111,368 L111,337 L68.5,337 L68.5,305 L111,305 L111,272 L68.5,272 L68.5,240 L111,240 L111,207 L68.5,207 L68.5,175 L111,175 L111,144 L68.5,144 L68.5,112 L111,112 L111,68.5 L143,68.5 L143,112 L175,112 L175,68.5 L207,68.5 L207,112 L240,112 L240,68.5 L272,68.5 L272,112 L303,112 L303,68.5 L335,68.5 L335,112 L335,112 L368,112 L368,68.5 L400,68.5 L400,112 L443.5,112 L443.5,144 L400,144 L400,175 L443.5,175 L443.5,207 L400,207 L400,240 L443.5,240 L443.5,272 L400,272 L400,305 L443.5,305 L443.5,337 L400,337 L400,368 L443.5,368 L443.5,400 L400,400 L400,443.5 L368,443.5 L368,400 L335,400 L335,443.5 L303,443.5 L303,400 L272,400 L272,443.5 L240,443.5 L240,400 Z M240,240 L207,240 L207,240 L207,207 L240,207 L240,240 Z M272,240 L303,240 L303,240 L303,207 L272,207 L272,240 Z M240,175 L207,175 L207,144 L240,144 L240,175 Z M272,175 L303,175 L303,175 L303,144 L272,144 L272,175 Z M240,368 L207,368 L207,368 L207,337 L240,337 L240,368 Z M272,368 L303,368 L303,368 L303,337 L272,337 L272,368 Z M175,272 L143,272 L143,305 L143,305 L175,305 L175,272 L175,272 Z M175,240 L143,240 L143,240 L143,207 L143,207 L175,207 L175,240 L175,240 Z M175,175 L143,175 L143,144 L143,144 L175,144 L175,175 L175,175 Z M175,368 L143,368 L143,337 L175,337 L175,368 L175,368 Z M335,272 L368,272 L368,272 L368,305 L335,305 L335,272 L335,272 Z M335,240 L368,240 L368,240 L368,207 L335,207 L335,240 L335,240 Z M335,175 L368,175 L368,175 L368,144 L335,144 L335,175 L335,175 Z M335,368 L368,368 L368,368 L368,337 L335,337 L335,368 L335,368 Z" sketch:type="MSShapeGroup"></path>
        </g>
    </g>
</svg>